<?xml version="1.0" encoding="UTF-8"?>
<!-- Generated by Pixelmator Pro 3.3.8 -->
<svg width="42" height="24" viewBox="0 0 42 24" xmlns="http://www.w3.org/2000/svg">
    <g id="Group">
        <path id="Path" fill="#ffffff" stroke="none" d="M 14.248267 5.3e-05 C 14.295055 0.00016 14.341846 0.000204 14.388634 0.000244 C 14.837018 0.000841 15.281175 0.00992 15.726713 0.06422 C 15.750939 0.066912 15.775166 0.069607 15.800126 0.07238 C 17.624281 0.275431 19.430927 0.93034 21.093435 2.377506 C 21.123377 2.405109 21.153593 2.432377 21.183901 2.459579 C 21.278625 2.5448 21.370224 2.630026 21.452168 2.727921 C 21.49284 2.775089 21.535311 2.820116 21.578152 2.865307 C 21.713064 3.008022 21.835632 3.156893 21.954176 3.313332 C 21.973511 3.338541 21.992851 3.36375 22.012196 3.388954 C 23.066259 4.769846 23.642105 6.459368 24.026394 10.233494 C 24.026396 10.303164 24.026512 10.372835 24.026611 10.442505 C 24.026791 10.580207 24.026867 10.71791 24.026911 10.855614 C 24.026968 11.020734 24.027138 11.185853 24.027306 11.350973 C 24.027706 11.749713 24.027912 12.148455 24.028082 12.547194 C 24.028162 12.735888 24.028263 12.924584 24.028366 13.113278 C 24.028713 13.759552 24.029003 14.405825 24.029146 15.052097 C 24.029154 15.092601 24.029163 15.133103 24.029173 15.173606 C 24.029181 15.203732 24.029181 15.203732 24.029186 15.234467 C 24.029211 15.336218 24.029234 15.437967 24.029259 15.539718 C 24.029263 15.55991 24.029268 15.580102 24.029272 15.600905 C 24.029425 16.256392 24.029879 16.91188 24.030506 17.567368 C 24.03117 18.26091 24.031549 18.954453 24.031614 19.647995 C 24.031624 19.724096 24.031633 19.800198 24.031643 19.876297 C 24.031645 19.895035 24.031647 19.913771 24.031649 19.933075 C 24.031694 20.234606 24.031996 20.536133 24.032393 20.837664 C 24.032785 21.140518 24.03289 21.443371 24.032707 21.746225 C 24.032606 21.926138 24.032721 22.106049 24.033144 22.285961 C 24.033403 22.406145 24.033384 22.526327 24.033134 22.646511 C 24.033003 22.714973 24.03299 22.783432 24.033321 22.851896 C 24.033611 22.925718 24.033426 22.999527 24.033123 23.073349 C 24.033417 23.105074 24.033417 23.105074 24.033722 23.137436 C 24.031784 23.352762 23.962248 23.528574 23.830151 23.697634 C 23.816275 23.715508 23.816275 23.715508 23.802122 23.733744 C 23.690037 23.860792 23.481552 23.978895 23.309143 23.990191 C 23.295938 23.990206 23.282734 23.990225 23.269129 23.990244 C 23.246094 23.990349 23.246094 23.990349 23.222591 23.990452 C 23.205801 23.990429 23.189011 23.990404 23.171713 23.990381 C 23.15374 23.990433 23.135767 23.990484 23.117249 23.990538 C 23.056574 23.990686 22.995895 23.990698 22.935219 23.990709 C 22.891457 23.990788 22.847694 23.990871 22.803932 23.990965 C 22.683311 23.991198 22.562695 23.991306 22.442078 23.991394 C 22.325459 23.991497 22.208843 23.991692 22.092226 23.991879 C 21.779707 23.992374 21.46719 23.992664 21.154673 23.992912 C 21.051149 23.992994 20.947628 23.993084 20.844107 23.993177 C 20.293625 23.993666 19.743141 23.994091 19.192657 23.994331 C 19.065113 23.994387 18.937569 23.994444 18.810022 23.994503 C 18.794176 23.994511 18.778332 23.994518 18.762005 23.994524 C 18.248365 23.994761 17.73473 23.995358 17.22109 23.996166 C 16.692999 23.996992 16.164907 23.997507 15.636815 23.997608 C 15.562202 23.997622 15.487589 23.997641 15.412976 23.99766 C 15.390949 23.997663 15.390949 23.997663 15.368478 23.997671 C 15.132307 23.99774 14.896139 23.998133 14.659968 23.998642 C 14.422485 23.999149 14.185002 23.999298 13.947517 23.999086 C 13.818893 23.99898 13.690274 23.999041 13.561651 23.999519 C 13.44384 23.999954 13.326036 23.999941 13.208224 23.999575 C 13.165664 23.999519 13.123103 23.999628 13.080543 23.99992 C 12.74194 24.002085 12.5008 23.962164 12.246883 23.72007 C 12.105153 23.571344 12.030592 23.389894 12.030067 23.185905 C 12.029982 23.167118 12.029982 23.167118 12.029893 23.147949 C 12.029725 23.105953 12.029696 23.063963 12.029668 23.021967 C 12.029578 22.991795 12.029481 22.961622 12.029377 22.931448 C 12.029122 22.849098 12.028998 22.766745 12.028913 22.684391 C 12.028855 22.632328 12.028776 22.580265 12.02869 22.5282 C 12.028424 22.363628 12.028238 22.199055 12.028164 22.034483 C 12.028087 21.866119 12.027857 21.697762 12.027345 21.529402 C 12.021836 19.677723 12.079544 17.815939 13.48328 13.176703 C 13.497117 13.16167 13.510952 13.146637 13.525208 13.131148 C 14.175311 12.442016 15.195964 12.284004 16.094172 12.229046 C 16.121237 12.227367 16.121237 12.227367 16.148849 12.225656 C 16.709129 12.192977 17.270803 12.205899 17.831274 12.224956 C 18.325083 12.241745 18.818533 12.253109 19.312649 12.254286 C 19.355667 12.254426 19.398684 12.254681 19.441702 12.254972 C 20.395287 12.260974 21.515186 12.19184 22.250847 11.51022 C 22.484831 11.271434 22.590828 10.963077 22.598436 10.632292 C 22.587334 10.253884 22.490187 9.920662 22.211109 9.654491 C 21.933889 9.426556 21.592287 9.358971 21.241997 9.363637 C 21.220875 9.363747 21.199749 9.363857 21.177988 9.363971 C 21.133104 9.364213 21.088219 9.364537 21.043335 9.364938 C 20.925678 9.365933 20.808018 9.366158 20.690355 9.366432 C 20.655691 9.366529 20.655691 9.366529 20.620325 9.366627 C 19.410923 9.36921 17.90361 9.355591 16.978975 8.462592 C 16.634377 8.114854 16.529209 7.684502 16.50152 7.207912 C 16.45722 6.458225 16.211 5.828371 15.688033 5.286005 C 15.674421 5.271173 15.66081 5.256338 15.646785 5.241056 C 14.582511 4.114058 12.652769 3.890799 11.185728 3.846621 C 9.730851 3.806189 8.271698 3.932941 6.843635 4.215057 C 6.830347 4.217651 6.817059 4.220245 6.803368 4.222918 C 6.134 4.354847 5.458016 4.629812 5.063151 5.215899 C 4.189711 6.565397 4.714644 8.581553 5.052586 10.186731 C 5.181967 10.790274 5.319582 11.391913 5.458412 11.99334 C 5.831518 13.610009 6.189087 15.231138 6.777154 19.703934 C 6.778646 19.723118 6.780138 19.742304 6.781674 19.76207 C 6.841353 20.540709 6.856986 21.320992 6.856846 22.101639 C 6.856842 22.219662 6.857382 22.337675 6.858037 22.455696 C 6.858467 22.548294 6.858545 22.640894 6.858525 22.733496 C 6.85857 22.777063 6.858738 22.820633 6.859041 22.864202 C 6.861191 23.204414 6.839869 23.4895 6.601961 23.756182 C 6.462245 23.888927 6.273534 23.989918 6.078681 23.990328 C 6.05015 23.990458 6.05015 23.990458 6.021042 23.990589 C 6.000192 23.990587 5.979342 23.990582 5.95786 23.99058 C 5.924579 23.990686 5.924579 23.990686 5.890626 23.990795 C 5.829029 23.990969 5.767432 23.991058 5.705834 23.99111 C 5.6394 23.991186 5.572966 23.991373 5.506533 23.991541 C 5.346077 23.991922 5.185622 23.992117 5.025167 23.992289 C 4.949564 23.992374 4.873961 23.992477 4.798359 23.992579 C 4.54696 23.992907 4.295562 23.993189 4.044163 23.993328 C 3.978938 23.993366 3.913714 23.993402 3.848489 23.993441 C 3.832278 23.99345 3.816067 23.99346 3.799365 23.993469 C 3.536882 23.993629 3.274401 23.994118 3.011918 23.994747 C 2.742298 23.995388 2.472678 23.995735 2.203055 23.995796 C 2.051729 23.99584 1.900405 23.996008 1.749079 23.996504 C 1.620174 23.996923 1.491272 23.997076 1.362368 23.996891 C 1.296651 23.996803 1.230947 23.996881 1.16523 23.997213 C 1.093824 23.997557 1.022435 23.997419 0.951029 23.997166 C 0.93048 23.997375 0.909933 23.997589 0.888761 23.997808 C 0.675147 23.995979 0.499706 23.925282 0.332118 23.794333 C 0.314243 23.780458 0.314243 23.780458 0.296006 23.766306 C 0.173898 23.658579 0.071735 23.472303 0.042018 23.310835 C 0.040183 23.259935 0.039374 23.209555 0.039505 23.158657 C 0.03945 23.135349 0.03945 23.135349 0.039394 23.111568 C 0.039294 23.059069 0.039332 23.006571 0.039368 22.954067 C 0.039325 22.916058 0.039273 22.878048 0.039214 22.840036 C 0.039073 22.734859 0.039054 22.629683 0.039054 22.524502 C 0.039033 22.410349 0.038902 22.296196 0.038785 22.182041 C 0.038595 21.98173 0.038479 21.781416 0.038412 21.581102 C 0.038339 21.3661 0.038226 21.1511 0.038062 20.9361 C 0.038052 20.922533 0.038042 20.908968 0.038031 20.894991 C 0.037988 20.839739 0.037947 20.784489 0.037905 20.729237 C 0.037391 20.05913 0.037091 19.389019 0.036838 18.718908 C 0.036755 18.501619 0.036668 18.284332 0.036575 18.067041 C 0.036093 16.92894 0.035667 15.790838 0.03543 14.652736 C 0.035413 14.569412 0.035395 14.486089 0.035377 14.402765 C 0.035374 14.386236 0.03537 14.369708 0.035367 14.352678 C 0.035331 14.185214 0.035295 14.017753 0.035258 13.850289 C 0.035251 13.816712 0.035244 13.783135 0.035237 13.749558 C 0.035004 12.671204 0.034429 11.59285 0.033623 10.514495 C 0.033045 9.739753 0.03251 8.965012 0.032322 8.190269 C 0.032319 8.174337 0.032314 8.158405 0.032311 8.141991 C 0.032227 7.792244 0.032169 7.442497 0.032138 7.092751 C 0.032125 6.952026 0.032109 6.811302 0.032091 6.670578 C 0.032089 6.655176 0.032088 6.639774 0.032085 6.623907 C 0.032025 6.127733 0.031667 5.631559 0.031156 5.135386 C 0.030643 4.635603 0.030435 4.135822 0.030647 3.636042 C 0.030677 3.566971 0.030703 3.497896 0.030728 3.428823 C 0.030732 3.415285 0.030737 3.401745 0.030742 3.387793 C 0.030809 3.17345 0.030552 2.959108 0.030159 2.744764 C 0.029779 2.533966 0.029753 2.323168 0.030076 2.112366 C 0.030239 1.999615 0.030248 1.886869 0.029833 1.774118 C 0.029456 1.671515 0.029527 1.568922 0.029951 1.466318 C 0.030027 1.429459 0.029939 1.392597 0.029669 1.355742 C 0.027515 1.041037 0.079421 0.806858 0.306054 0.572725 C 0.489108 0.402592 0.704243 0.348396 0.946809 0.349148 C 0.96761 0.34906 0.988411 0.348972 1.009843 0.348883 C 1.079442 0.348639 1.149035 0.348669 1.218634 0.348701 C 1.26858 0.348585 1.318526 0.348454 1.368471 0.348307 C 1.490009 0.347986 1.611546 0.347879 1.733086 0.347858 C 1.831937 0.347839 1.930789 0.347759 2.029642 0.347639 C 2.310205 0.347296 2.590769 0.34712 2.871333 0.347147 C 2.886446 0.347151 2.90156 0.347151 2.917131 0.347153 C 2.939829 0.347155 2.939829 0.347155 2.962985 0.347157 C 3.208068 0.347174 3.453148 0.346804 3.69823 0.346258 C 3.950173 0.345701 4.202115 0.345434 4.454058 0.345469 C 4.595386 0.345482 4.736712 0.345375 4.878038 0.344959 C 5.011017 0.344568 5.143991 0.344582 5.27697 0.344862 C 5.32568 0.344902 5.37439 0.344812 5.4231 0.344578 C 5.489796 0.344276 5.556475 0.34446 5.62317 0.344757 C 5.642268 0.344559 5.661366 0.34436 5.681043 0.344154 C 5.926006 0.346554 6.130423 0.43642 6.30816 0.603397 C 6.475043 0.781431 6.538322 0.991098 6.557162 1.229452 C 6.582339 1.494564 6.658182 1.68627 6.85814 1.868879 C 7.042345 2.017979 7.265426 2.066277 7.499002 2.053516 C 7.710295 2.021385 7.898405 1.898214 8.065452 1.77165 C 8.328185 1.580244 8.615438 1.420046 8.899713 1.263298 C 8.91685 1.253826 8.933987 1.244356 8.951642 1.2346 C 10.098635 0.605858 11.388999 0.25049 12.681881 0.087187 C 12.696852 0.085268 12.711823 0.083345 12.727249 0.081369 C 13.233429 0.017323 13.738676 -0.001139 14.248267 5.3e-05 Z"/>
        <path id="path1" fill="#ffffff" stroke="none" d="M 14.143255 6.423437 C 14.521559 6.738588 14.769237 7.154581 14.837076 7.645479 C 14.875988 8.158031 14.776769 8.656031 14.439927 9.057749 C 14.387212 9.117533 14.332188 9.174606 14.276217 9.231355 C 14.260885 9.246936 14.245553 9.262518 14.229756 9.278571 C 13.899179 9.594848 13.466445 9.742425 13.014286 9.740237 C 12.991148 9.740143 12.968009 9.740047 12.944169 9.739949 C 12.781102 9.737784 12.633574 9.726936 12.477603 9.676173 C 12.45701 9.669591 12.436418 9.663011 12.415201 9.656229 C 12.173278 9.570776 11.953453 9.440862 11.762025 9.270035 C 11.738242 9.248981 11.738242 9.248981 11.713977 9.227502 C 11.380885 8.91458 11.173262 8.456639 11.158558 7.999113 C 11.150792 7.481522 11.292509 7.008125 11.645985 6.620462 C 11.659024 6.605629 11.672063 6.590796 11.685496 6.575512 C 12.321778 5.891478 13.422379 5.864758 14.143255 6.423437 Z"/>
    </g>
</svg>
